<svg id="Layer_1" data-name="Layer 1" xmlns="http://www.w3.org/2000/svg" viewBox="0 0 370.86 360"><defs><style>.cls-1{fill:#fff;}</style></defs><rect class="cls-1" x="251.36" y="0.5" width="119" height="359"/><path d="M380,21V379H262V21H380m1-1H261V380H381V20Z" transform="translate(-10.14 -20)"/><rect class="cls-1" x="0.5" y="0.68" width="239.86" height="99.82"/><path d="M250,21.18V120H11.14V21.18H250m1-1H10.14V121H251V20.18Z" transform="translate(-10.14 -20)"/><rect class="cls-1" x="0.5" y="130.28" width="239.86" height="99.82"/><path d="M250,150.78v98.81H11.14V150.78H250m1-1H10.14V250.59H251V149.78Z" transform="translate(-10.14 -20)"/><rect class="cls-1" x="0.5" y="259.28" width="239.86" height="99.82"/><path d="M250,279.78v98.81H11.14V279.78H250m1-1H10.14V379.59H251V278.78Z" transform="translate(-10.14 -20)"/></svg>