<svg id="Layer_1" data-name="Layer 1" xmlns="http://www.w3.org/2000/svg" viewBox="0 0 370 360"><defs><style>.cls-1{fill:#fff;}</style></defs><rect class="cls-1" x="0.5" y="0.5" width="119" height="359"/><path d="M130,21V379H12V21H130m1-1H11V380H131V20Z" transform="translate(-11 -20)"/><rect class="cls-1" x="129.64" y="0.68" width="239.86" height="99.82"/><path d="M380,21.18V120H141.14V21.18H380m1-1H140.14V121H381V20.18Z" transform="translate(-11 -20)"/><rect class="cls-1" x="129.64" y="130.28" width="239.86" height="99.82"/><path d="M380,150.78v98.81H141.14V150.78H380m1-1H140.14V250.59H381V149.78Z" transform="translate(-11 -20)"/><rect class="cls-1" x="129.64" y="259.28" width="239.86" height="99.82"/><path d="M380,279.78v98.81H141.14V279.78H380m1-1H140.14V379.59H381V278.78Z" transform="translate(-11 -20)"/></svg>