<svg id="Layer_1" data-name="Layer 1" xmlns="http://www.w3.org/2000/svg" viewBox="0 0 379 360"><defs><style>.cls-1{fill:#fff;}</style></defs><rect class="cls-1" x="0.5" y="0.5" width="119" height="359"/><path d="M130,21V379H12V21H130m1-1H11V380H131V20Z" transform="translate(-11 -20)"/><rect class="cls-1" x="259.5" y="0.5" width="119" height="359"/><path d="M389,21V379H271V21H389m1-1H270V380H390V20Z" transform="translate(-11 -20)"/><rect class="cls-1" x="129.64" y="0.68" width="119" height="99.82"/><path d="M259.14,21.18V120h-118V21.18h118m1-1h-120V121h120V20.18Z" transform="translate(-11 -20)"/><rect class="cls-1" x="129.64" y="119.5" width="119" height="239.59"/><path d="M259.14,140V378.59h-118V140h118m1-1h-120V379.59h120V139Z" transform="translate(-11 -20)"/></svg>